
Genre:Fantasy
Language:English
 
http://www.imdb.com/title/tt1506458/

Source:DVD Thanks!
Subtitles:Romana

Format : AVI
Format/Info : Audio Video Interleave
File size : 1.19 GiB
Duration : 1h 29mn
Overall bit rate : 1 910 Kbps

Video
ID : 0
Format : MPEG-4 Visual
Format profile : Advanced Simple@L5
Format settings, BVOP : Yes
Format settings, QPel : No
Format settings, GMC : No warppoints
Format settings, Matrix : Default (H.263)
Codec ID : XVID
Codec ID/Hint : XviD
Duration : 1h 29mn
Bit rate : 1 452 Kbps
Width : 720 pixels
Height : 400 pixels
Display aspect ratio : 16:9
Frame rate : 23.976 fps
Color space : YUV
Chroma subsampling : 4:2:0
Bit depth : 8 bits
Scan type : Progressive
Bits/(Pixel*Frame) : 0.210
Stream size : 929 MiB (76%)
Writing library : XviD 1.2.1 (UTC 2008-12-04)

Audio
ID : 1
Format : AC-3
Format/Info : Audio Coding 3
Mode extension : CM (complete main)
Codec ID : 2000
Duration : 1h 29mn
Bit rate mode : Constant
Bit rate : 448 Kbps
Channel(s) : 6 channels
Channel positions : Front: L C R, Side: L R, LFE
Sampling rate : 48.0 KHz
Bit depth : 16 bits
Stream size : 287 MiB (23%)
Alignment : Aligned on interleaves
Interleave, duration : 42 ms (1.00 video frame)
Interleave, preload duration : 512 ms
 
http://leetleech.org/images/69261152328846251956.png
 
http://leetleech.org/images/00664701691244583809.png
 
http://leetleech.org/images/86124250293322524648.png
 
http://leetleech.org/images/67494512114279052539.png
 
http://leetleech.org/images/22828520590417251399.png